Coordinates
version=1
nRows=8
nColumns=63
inDegrees=yes

Units are S.I. units (second, meters, Newtons, ...)
If the header above contains a line with 'inDegrees', this indicates whether rotational values are in degrees (yes) or radians (no).

endheader
time	pelvis_tilt	pelvis_list	pelvis_rotation	pelvis_tx	pelvis_ty	pelvis_tz	hip_flexion_r	hip_adduction_r	hip_rotation_r	knee_angle_r	knee_angle_r_beta	ankle_angle_r	subtalar_angle_r	mtp_angle_r	hip_flexion_l	hip_adduction_l	hip_rotation_l	knee_angle_l	knee_angle_l_beta	ankle_angle_l	subtalar_angle_l	mtp_angle_l	L5_S1_Flex_Ext	L5_S1_Lat_Bending	L5_S1_axial_rotation	L4_L5_Flex_Ext	L4_L5_Lat_Bending	L4_L5_axial_rotation	L3_L4_Flex_Ext	L3_L4_Lat_Bending	L3_L4_axial_rotation	L2_L3_Flex_Ext	L2_L3_Lat_Bending	L2_L3_axial_rotation	L1_L2_Flex_Ext	L1_L2_Lat_Bending	L1_L2_axial_rotation	L1_T12_Flex_Ext	L1_T12_Lat_Bending	L1_T12_axial_rotation	Abs_r3	Abs_r2	Abs_r1	Abs_t1	Abs_t2	neck_flexion	neck_bending	neck_rotation	arm_flex_r	arm_add_r	arm_rot_r	elbow_flex_r	pro_sup_r	wrist_flex_r	wrist_dev_r	arm_flex_l	arm_add_l	arm_rot_l	elbow_flex_l	pro_sup_l	wrist_flex_l	wrist_dev_l
      4.25800000	    -43.78670139	      0.39587214	     -3.81898411	     -0.23934038	      1.03914980	     -0.01203080	     94.68326419	     -5.12487954	      1.39999646	    102.76901825	      1.79365774	      8.19686759	      1.54865962	      0.00000000	     96.72820490	     -8.15186435	     -2.90114766	     65.09706704	      1.13615815	     13.76948318	      3.66340120	      0.00000000	     -0.04852484	      0.14351244	      0.26574966	     -0.09011549	      0.19087154	      0.28235902	     -0.07972147	      0.34893614	      0.28235902	     -0.05545905	      0.34893614	      0.23253095	     -0.04506017	      0.29265056	      0.21592160	     -0.02772710	      0.22230077	      0.19931225	     -0.34660812	      1.62344140	      1.47801989	      0.00000000	      0.00000000	     -0.00000000	      0.00000000	      0.00000000	     75.50140800	    -10.99270075	     29.60832785	     29.56107291	     40.88009368	      0.00000000	      5.00000023	     74.80025142	     -8.61073756	     22.09101491	     30.70475063	     46.90929366	      0.00000000	      5.00000023
      4.26700000	    -43.80269646	      0.57378093	     -3.81311636	     -0.23916250	      1.03927611	     -0.01222310	     95.82910454	     -5.27988483	      1.72828055	    104.51289114	      1.82409406	      8.68178489	      1.79953025	      0.00000000	     95.38870879	     -8.00943735	     -3.17248840	     63.12245515	      1.10169467	     13.17201555	      3.32772089	      0.00000000	     -0.04880834	      0.13239596	      0.25315422	     -0.09064196	      0.17608663	      0.26897636	     -0.08018722	      0.32190754	      0.26897636	     -0.05578305	      0.32190754	      0.22150994	     -0.04532342	      0.26998184	      0.20568781	     -0.02788908	      0.20508134	      0.18986567	     -0.34863306	      1.49768957	      1.40796784	      0.00000000	      0.00000000	     -0.00000000	      0.00000000	      0.00000000	     75.56068972	    -10.90620520	     29.70946773	     29.57764474	     40.87426947	      0.00000000	      5.00000022	     74.70443217	     -8.81317664	     22.06451164	     30.87864518	     46.92742107	      0.00000000	      5.00000022
      4.27500000	    -43.84080675	      0.66879009	     -3.94408720	     -0.23912560	      1.03945009	     -0.01230089	     96.98920299	     -5.32360715	      1.89387530	    106.13291961	      1.85236889	      9.14613836	      1.92036337	      0.00000000	     94.11488872	     -7.98129286	     -3.26903484	     61.22816661	      1.06863310	     12.60301829	      3.11945772	      0.00000000	     -0.04909541	      0.13280156	      0.26887100	     -0.09117509	      0.17662607	      0.28567544	     -0.08065886	      0.32289371	      0.28567544	     -0.05611115	      0.32289371	      0.23526213	     -0.04559000	      0.27080894	      0.21845769	     -0.02805312	      0.20570961	      0.20165325	     -0.35068363	      1.50227778	      1.49537985	      0.00000000	      0.00000000	     -0.00000000	      0.00000000	      0.00000000	     75.65345608	    -10.85678560	     29.81691836	     29.58854712	     40.87928710	      0.00000000	      5.00000022	     74.65520688	     -9.01224998	     22.08471870	     30.98500131	     46.94682718	      0.00000000	      5.00000022
      4.28300000	    -43.86989222	      1.06325602	     -3.77642230	     -0.23928386	      1.03955457	     -0.01237709	     98.29320801	     -5.61131902	      2.40630339	    107.80144495	      1.88149015	      9.68909935	      2.17314149	      0.00000000	     92.75128747	     -7.63482381	     -3.72082022	     59.25596647	      1.03421172	     11.98757549	      2.61393472	      0.00000000	     -0.04914111	      0.08615830	      0.22147777	     -0.09125995	      0.11459054	      0.23532013	     -0.08073393	      0.20948529	      0.23532013	     -0.05616337	      0.20948529	      0.19379305	     -0.04563243	      0.17569400	      0.17995069	     -0.02807923	      0.13345920	      0.16610833	     -0.35101003	      0.97463990	      1.23179293	      0.00000000	      0.00000000	     -0.00000000	      0.00000000	      0.00000000	     75.72754208	    -10.73771259	     30.04135802	     29.54394958	     40.91100251	      0.00000000	      5.00000022	     74.74954708	     -9.29392518	     22.23333931	     31.02003442	     46.99480694	      0.00000000	      5.00000022
      4.29200000	    -43.94814711	      1.09997766	     -3.99793137	     -0.23965571	      1.03976064	     -0.01210027	     99.51568660	     -5.51528721	      2.43139686	    109.19833407	      1.90587047	     10.17726489	      2.16286452	      0.00000000	     91.54601486	     -7.66229511	     -3.62956056	     57.44244907	      1.00255987	     11.50453213	      2.42568000	      0.00000000	     -0.04932655	      0.08769138	      0.25437130	     -0.09160433	      0.11662953	      0.27026951	     -0.08103859	      0.21321282	      0.27026951	     -0.05637531	      0.21321282	      0.22257489	     -0.04580463	      0.17882026	      0.20667668	     -0.02818519	      0.13583394	      0.19077847	     -0.35233461	      0.99198240	      1.41473686	      0.00000000	      0.00000000	     -0.00000000	      0.00000000	      0.00000000	     75.84251306	    -10.71469143	     30.12827882	     29.57249844	     40.91985074	      0.00000000	      5.00000022	     74.85420774	     -9.44663863	     22.32385055	     31.00740498	     47.02309179	      0.00000000	      5.00000022
      4.30000000	    -43.98858808	      1.57584155	     -3.79710136	     -0.24014101	      1.03980142	     -0.01192477	    100.90126292	     -5.77846860	      2.98506353	    110.72976197	      1.93259893	     10.79543858	      2.22187786	      0.00000000	     90.22428018	     -7.22978051	     -4.03845079	     55.58479592	      0.97013770	     10.94286556	      1.82301837	      0.00000000	     -0.04976991	      0.02384178	      0.20234184	     -0.09242770	      0.03170957	      0.21498820	     -0.08176699	      0.05796890	      0.21498820	     -0.05688203	      0.05796890	      0.17704911	     -0.04621634	      0.04861816	      0.16440274	     -0.02843853	      0.03693092	      0.15175638	     -0.35550150	      0.26970298	      1.12536459	      0.00000000	      0.00000000	     -0.00000000	      0.00000000	      0.00000000	     75.90356737	    -10.63397928	     30.35131803	     29.57088908	     40.91916371	      0.00000000	      5.00000021	     75.17640652	     -9.69449880	     22.68453420	     30.76283341	     47.12689883	      0.00000000	      5.00000021
      4.30800000	    -44.05818128	      1.84969933	     -3.83805297	     -0.24086255	      1.03985943	     -0.01148598	    102.24466654	     -5.79405321	      3.27302805	    112.05115514	      1.95566159	     11.39173109	      2.29415514	      0.00000000	     89.03375085	     -7.03936855	     -4.19690092	     53.87061582	      0.94021962	     10.14240198	      1.15830495	      0.00000000	     -0.04956994	     -0.01341425	      0.20197249	     -0.09205633	     -0.01784096	      0.21459577	     -0.08143845	     -0.03261542	      0.21459577	     -0.05665348	     -0.03261542	      0.17672593	     -0.04603064	     -0.02735435	      0.16410265	     -0.02832426	     -0.02077868	      0.15147937	     -0.35407309	     -0.15174471	      1.12331042	      0.00000000	      0.00000000	     -0.00000000	      0.00000000	      0.00000000	     75.99213593	    -10.60599452	     30.46233477	     29.58680640	     40.87539234	      0.00000000	      5.00000021	     75.57642921	     -9.91542465	     23.42859554	     30.45619405	     47.31985850	      0.00000000	      5.00000021
      4.31700000	    -44.14339290	      2.06479352	     -3.94369666	     -0.24176253	      1.03985087	     -0.01084955	    103.59026017	     -5.73497049	      3.43623602	    113.26605444	      1.97686558	     12.03269831	      2.29952643	      0.00000000	     87.92557009	     -6.87549978	     -4.13866830	     52.27203543	      0.91231913	      9.29380242	      0.33178192	      0.00000000	     -0.04939095	     -0.04520594	      0.21658693	     -0.09172393	     -0.06012390	      0.23012361	     -0.08114439	     -0.10991372	      0.23012361	     -0.05644892	     -0.10991372	      0.18951356	     -0.04586443	     -0.09218395	      0.17597688	     -0.02822199	     -0.07002400	      0.16244020	     -0.35279461	     -0.51137862	      1.20459153	      0.00000000	      0.00000000	     -0.00000000	      0.00000000	      0.00000000	     76.08304620	    -10.59456672	     30.44613647	     29.61010086	     40.72265783	      0.00000000	      5.00000020	     76.13150835	    -10.24251065	     24.95950677	     30.09714649	     47.72537528	      0.00000000	      5.00000020
